<?xml version="1.0" encoding="UTF-8"?>
<svg id="Calque_1" data-name="Calque 1" xmlns="http://www.w3.org/2000/svg" viewBox="0 0 37.95 37.95">
  <defs>
    <style>
      .cls-1 {
        fill: #fff;
      }

      .cls-2 {
        fill: #070d17;
      }
    </style>
  </defs>
  <path class="cls-1" d="M37.95,18.97c0,6.01-2.8,11.37-7.16,14.85-3.24,2.58-7.35,4.13-11.81,4.13s-8.57-1.54-11.81-4.13C2.8,30.35,0,24.99,0,18.97,0,8.5,8.5,0,18.97,0s18.97,8.5,18.97,18.97Z"/>
  <circle class="cls-2" cx="18.97" cy="14.73" r="6.33"/>
  <path class="cls-2" d="M29.32,30.67c-.21.19-.42.36-.63.53-2.78,2.22-6.14,3.39-9.72,3.39s-6.93-1.17-9.72-3.39c-.21-.17-.42-.34-.62-.53,2.2-3.38,6.01-5.61,10.34-5.61s8.14,2.23,10.35,5.61Z"/>
</svg>