<?xml version="1.0" encoding="UTF-8"?>
<svg id="Calque_1" data-name="Calque 1" xmlns="http://www.w3.org/2000/svg" viewBox="0 0 118.74 98.14">
  <defs>
    <style>
      .cls-1 {
        fill: #c00069;
      }

      .cls-2 {
        fill: #09123a;
      }
    </style>
  </defs>
  <g>
    <path class="cls-2" d="M11.49,98.04h-5.63L0,80.9l6.06-.02,5.45,15.48c1.09-2.64,1.76-4.98,2.02-7.02l-2.89-8.47,6.04-.02,5.45,15.48c1.17-2.83,1.88-5.31,2.09-7.43.21-2.12.07-3.87-.42-5.22-.49-1.35-1.21-2.29-2.16-2.82h3.84c.33,0,.65.02.96.05.31.05.56.16.74.36.18.21.28.54.28,1.01-.02.47-.16,1.13-.44,1.96l-4.9,13.78h-5.63l-2.43-7.15-2.56,7.18Z"/>
    <path class="cls-2" d="M30.98,82.28c.64-.6,1.44-1,2.43-1.17.98-.18,2.04-.26,3.18-.25,1.16.02,2.25.23,3.3.62,1.03.41,1.88,1,2.55,1.76.67.78,1,1.76,1.01,2.92l.02,9.19c-.02.39,0,.8.05,1.21.03.41.15.77.33,1.06.18.31.49.46.91.46h-5.13c-.88.02-1.5-.23-1.84-.7s-.46-1.29-.31-2.43c-.98,1.27-2.07,2.16-3.28,2.63-1.22.49-2.37.62-3.46.41-1.09-.21-1.96-.75-2.6-1.58s-.87-1.94-.69-3.31c.18-1.09.59-1.94,1.21-2.56.62-.62,1.36-1.09,2.2-1.44.83-.34,1.7-.62,2.56-.83,1.04-.26,1.94-.59,2.71-.96.75-.38,1.19-.98,1.32-1.78.2-2.07-.42-3.31-1.85-3.71-1.44-.38-2.6-.33-3.48.18.9-.06,1.62.16,2.19.7.57.54.85,1.18.85,1.91s-.26,1.37-.78,1.88c-.52.52-1.16.78-1.89.78s-1.36-.26-1.88-.78c-.52-.51-.78-1.14-.78-1.88,0-.34.05-.65.16-.95.16-.46.49-.91.98-1.37ZM36.94,87.13c-.28.26-.59.54-.95.82-.6.44-1.19,1-1.73,1.63-.54.65-.87,1.49-.95,2.51-.02,1.08.21,1.94.69,2.58.46.65,1.01,1,1.67,1.03.65.03,1.26-.34,1.81-1.11l-.02-8.26c-.08.28-.26.55-.52.8Z"/>
    <path class="cls-2" d="M52.64,98.04h-6.07v-15.38c2.58.18,4.6-.42,6.07-1.8v3.66c.36-1.21,1.06-2.12,2.09-2.73,1.14-.67,2.4-.95,3.79-.87,1.37.1,2.56.57,3.58,1.44,1,.87,1.52,2.11,1.57,3.74l.02,11.92h-5.99l-.03-12.77c-.05-1.35-.46-2.2-1.21-2.53-.75-.33-1.53-.2-2.35.41-.69.51-1.18,1.31-1.45,2.42v12.49Z"/>
    <path class="cls-2" d="M83.4,74.59l.06,23.49c-1.88-1.26-5.19-2.11-6.2-1.09-1.03,1.09-1.84,1.13-3.54,1.09-3.07-.08-8.11-2.37-8.11-8.51.05-7.25,6.58-11.41,11.72-6.61v-6.74c.2,0,4.93-.29,6.07-1.63ZM77.33,94.15v-10.81c-6.32-5.22-7.28,13.88-2.43,14.29,1.13,0,2.14-1.16,2.43-3.48Z"/>
    <path class="cls-2" d="M98.74,82.74c1.68,1.57,2.56,3.93,2.64,7.12l-9.84.1c.49,1.62,1.24,2.76,2.24,3.43,1,.67,2.22,1.03,3.69,1.09s2.87-.73,4.23-2.38c-.51,2.04-1.45,3.56-2.84,4.54s-2.96,1.47-4.69,1.5c-2.47,0-4.51-.77-6.11-2.29-1.6-1.52-2.45-3.64-2.53-6.33-.02-2.04.57-3.87,1.78-5.52,1.21-1.67,2.96-2.66,5.24-3.02,2.45-.39,4.51.2,6.19,1.76ZM94.2,89.27c1.03-.13,1.47-.78,1.34-1.94-.08-.52-.18-1.03-.31-1.52-.21-.87-.49-1.67-.83-2.42-.56-1.19-1.22-1.81-2.02-1.84-.83-.03-1.31.72-1.45,2.27-.15,1.54.02,3.41.49,5.63,1.13-.02,2.06-.08,2.79-.18Z"/>
    <path class="cls-2" d="M113.27,81.88c-.78.21-1.39.6-1.8,1.19-.87,1.21-1.45,2.89-1.73,5.04l-.02,10.01h-6.07l.02-15.69c2.73.26,4.75-.23,6.07-1.49v4.92c.24-1.31.73-2.4,1.49-3.3.82-.95,1.89-1.42,3.22-1.4,1.34,0,2.37.29,3.13.88.75.59,1.14,1.4,1.16,2.45,0,.74-.26,1.37-.78,1.88-.52.52-1.14.78-1.88.78s-1.37-.26-1.89-.78c-.52-.51-.78-1.14-.78-1.88-.02-1.19.47-1.98,1.47-2.37-.28-.39-.82-.47-1.6-.25Z"/>
  </g>
  <g>
    <g>
      <path class="cls-1" d="M33.25,9.22c-3.28-.55-7.92.4-11.37,0l-.39.75c5.16,6.35,7.26,15.41,9.84,23.19,2.43,7.32,4.37,15.55,7.07,22.64.54,1.41.79,2.7,2.6,2.83,1.03.07,3.76-.49,4.74-.96,3.35-1.63,1.48-4.18,1.27-6.81-.52-6.47,5.02-11.1,10.54-13.3,4.67-1.87,9.97-2.43,14.63-4.09.38-.13.67.17.47-.54-.43-1.53-1.6-3.53-2.17-5.17-1.14-3.27-2.6-10.87-5.38-12.6-1.59-.98-7.94-1.2-9.68-.63-3.26,1.06-.31,3.92.29,5.25,3.46,7.62-4.65,17.13-9.44,22.47l-9-29.34c-.51-1.62-2.37-3.4-4.03-3.67Z"/>
      <path class="cls-1" d="M97.63,9.22h-8.25c-.99,0-2.51,2.43-2.93,3.31-3.2,6.71-6.14,17.07-8.63,24.38-.59,1.74-1.23,3.49-1.46,5.32l-1.8-4.99-.56-.49c-5.74,4.3-15.36,6.65-8.27,15.2,1.9,2.3,5.04,4.31,7.81,5.39,2.28.9,6.35,2.69,7.41-.43l16.69-47.7Z"/>
      <path class="cls-1" d="M33.25,9.22c1.66.28,3.52,2.05,4.03,3.67l9,29.34c4.79-5.34,12.9-14.84,9.44-22.47-.61-1.34-3.56-4.2-.29-5.25,1.75-.56,8.1-.35,9.68.63,2.78,1.73,4.23,9.33,5.38,12.6.57,1.64,1.74,3.64,2.17,5.17.2.72-.09.41-.47.54-4.67,1.65-9.96,2.22-14.63,4.09-5.52,2.2-11.05,6.83-10.54,13.3.21,2.63,2.08,5.18-1.27,6.81-.98.47-3.71,1.04-4.74.96-1.81-.13-2.06-1.42-2.6-2.83-2.7-7.09-4.64-15.33-7.07-22.64-2.58-7.78-4.68-16.84-9.84-23.19l.39-.75c3.45.4,8.09-.55,11.37,0Z"/>
      <path class="cls-1" d="M97.63,9.22l-16.69,47.7c-1.06,3.12-5.13,1.33-7.41.43-2.77-1.09-5.91-3.1-7.81-5.39-7.09-8.55,2.53-10.9,8.27-15.2l.56.49,1.8,4.99c.23-1.84.87-3.58,1.46-5.32,2.49-7.32,5.43-17.67,8.63-24.38.42-.87,1.94-3.31,2.93-3.31h8.25Z"/>
    </g>
    <polygon class="cls-2" points="80.73 0 82.18 3.92 86.1 5.37 82.18 6.82 80.73 10.74 79.28 6.82 75.36 5.37 79.28 3.92 80.73 0"/>
  </g>
</svg>