<?xml version="1.0" encoding="UTF-8"?>
<svg id="Calque_1" data-name="Calque 1" xmlns="http://www.w3.org/2000/svg" viewBox="0 0 37.95 29.24">
  <defs>
    <style>
      .cls-1 {
        fill: #fff;
      }

      .cls-2 {
        fill: #c00069;
      }
    </style>
  </defs>
  <g>
    <path class="cls-2" d="M5.86,4.59c-1.64-.27-3.95.2-5.67,0l-.19.37c2.57,3.16,3.62,7.68,4.91,11.55,1.21,3.65,2.18,7.75,3.52,11.28.27.7.4,1.35,1.3,1.41.51.04,1.87-.24,2.36-.48,1.67-.81.74-2.08.64-3.39-.26-3.22,2.5-5.53,5.25-6.63,2.33-.93,4.97-1.21,7.29-2.04.19-.07.33.09.23-.27-.21-.76-.8-1.76-1.08-2.58-.57-1.63-1.29-5.42-2.68-6.28-.79-.49-3.95-.6-4.82-.32-1.63.53-.16,1.95.15,2.62,1.72,3.8-2.32,8.54-4.7,11.2L7.87,6.43c-.25-.81-1.18-1.69-2.01-1.83Z"/>
    <path class="cls-2" d="M37.95,4.59h-4.11c-.49,0-1.25,1.21-1.46,1.65-1.59,3.34-3.06,8.51-4.3,12.15-.3.87-.61,1.74-.73,2.65l-.9-2.49-.28-.24c-2.86,2.14-7.65,3.31-4.12,7.57.95,1.15,2.51,2.15,3.89,2.69,1.14.45,3.16,1.34,3.69-.21l8.32-23.77Z"/>
    <path class="cls-2" d="M5.86,4.59c.83.14,1.75,1.02,2.01,1.83l4.48,14.62c2.39-2.66,6.43-7.4,4.7-11.2-.3-.67-1.77-2.09-.15-2.62.87-.28,4.03-.17,4.82.32,1.38.86,2.11,4.65,2.68,6.28.29.82.87,1.81,1.08,2.58.1.36-.04.2-.23.27-2.32.82-4.96,1.11-7.29,2.04-2.75,1.1-5.51,3.4-5.25,6.63.1,1.31,1.04,2.58-.64,3.39-.49.24-1.85.52-2.36.48-.9-.06-1.03-.71-1.3-1.41-1.35-3.53-2.31-7.64-3.52-11.28C3.62,12.64,2.57,8.13,0,4.97l.19-.37c1.72.2,4.03-.27,5.67,0Z"/>
    <path class="cls-2" d="M37.95,4.59l-8.32,23.77c-.53,1.56-2.55.66-3.69.21-1.38-.54-2.94-1.54-3.89-2.69-3.53-4.26,1.26-5.43,4.12-7.57l.28.24.9,2.49c.12-.92.43-1.79.73-2.65,1.24-3.65,2.71-8.81,4.3-12.15.21-.44.97-1.65,1.46-1.65h4.11Z"/>
  </g>
  <polygon class="cls-1" points="29.53 0 30.25 1.95 32.2 2.68 30.25 3.4 29.53 5.35 28.8 3.4 26.85 2.68 28.8 1.95 29.53 0"/>
</svg>